<svg width="1484" height="749" viewBox="0 0 1484 749" fill="none" xmlns="http://www.w3.org/2000/svg">
<path d="M399.47 545.745V605.672H385.718V522.239H398.303L427.453 561.726L456.725 522.239H469.31V605.672H455.446V545.858L427.594 583.708L399.507 545.745H399.47Z" fill="white"/>
<path d="M489.731 522.241H539.913V535.401H503.474V556.79H532.859V569.949H503.474V592.505H539.913V605.655H489.731V522.223V522.241Z" fill="white"/>
<path d="M581.403 592.879C599.265 592.879 611.126 580.313 611.126 563.974C611.126 547.636 599.265 535.069 581.403 535.069H569.542V592.879H581.403ZM555.79 522.239H581.412C606.198 522.239 625.132 540.337 625.132 563.956C625.132 587.574 606.216 605.672 581.412 605.672H555.79V522.239Z" fill="white"/>
<path d="M654.038 522.239H640.296V605.672H654.038V522.239Z" fill="white"/>
<path d="M712.694 520.847C732.795 520.847 748.88 533.893 752.887 550.232H738.072C734.545 540.722 724.442 534.138 712.694 534.138C695.302 534.138 683.083 547.184 683.083 563.993C683.083 580.802 695.302 593.829 712.694 593.829C724.442 593.829 734.545 587.254 738.072 577.735H752.887C748.88 594.074 732.795 607.12 712.694 607.12C687.909 607.12 669.219 588.317 669.219 563.993C669.219 539.668 687.909 520.866 712.694 520.866V520.847Z" fill="white"/>
<path d="M780.514 522.239H766.771V605.672H780.514V522.239Z" fill="white"/>
<path d="M861.718 605.672L814.724 545.614V605.672H800.973V522.239H812.966L859.855 582.053V522.239H873.71V605.672H861.718Z" fill="white"/>
<path d="M940.126 571.603L926.722 540.694L913.318 571.603H940.126ZM920.843 522.239H932.836L969.275 605.672H954.941L945.431 583.821H908.06L898.664 605.672H884.441L920.881 522.239H920.862H920.843Z" fill="white"/>
<path d="M411.35 733.915C429.212 733.915 441.073 721.349 441.073 705.01C441.073 688.672 429.212 676.105 411.35 676.105H399.488V733.915H411.35ZM385.718 663.294H411.34C436.125 663.294 455.06 681.391 455.06 705.01C455.06 728.629 436.144 746.727 411.34 746.727H385.718V663.294Z" fill="white"/>
<path d="M483.965 663.294H470.223V746.727H483.965V663.294Z" fill="white"/>
<path d="M550.383 712.639L536.979 681.73L523.575 712.639H550.383ZM531.1 663.294H543.093L579.532 746.727H565.197L555.688 724.876H518.317L508.92 746.727H494.698L531.138 663.294H531.119H531.1Z" fill="white"/>
<path d="M625.483 661.88C644.173 661.88 659.806 673.28 664.97 687.963H649.337C644.991 680.316 635.933 675.152 625.483 675.152C608.091 675.152 595.872 688.189 595.872 705.007C595.872 721.825 608.091 734.843 625.595 734.843C641.116 734.843 651.199 725.08 652.977 710.877H624.41V697.953H667.067C670.115 730.272 650.136 748.134 625.577 748.134C601.017 748.134 581.97 729.331 581.97 705.007C581.97 680.683 600.66 661.88 625.445 661.88H625.483Z" fill="white"/>
<path d="M743.378 746.727L696.376 686.668V746.727H682.624V663.294H694.617L741.507 723.098V663.294H755.371V746.727H743.378Z" fill="white"/>
<path d="M818.344 637.784H833.498L819.633 656.239H809.531L818.335 637.784H818.344ZM813.651 734.846C830.102 734.846 842.782 721.574 842.782 705.01C842.782 688.446 830.083 675.155 813.651 675.155C797.218 675.155 784.379 688.427 784.379 705.01C784.379 721.593 797.077 734.846 813.651 734.846ZM813.651 748.137C789.684 748.137 770.523 729.109 770.523 705.01C770.523 680.911 789.684 661.883 813.651 661.883C837.618 661.883 856.778 680.911 856.778 705.01C856.778 729.109 837.505 748.137 813.651 748.137Z" fill="white"/>
<path d="M879.947 722.74C880.991 731.206 888.873 735.307 896.52 735.307C904.168 735.307 910.498 731.3 910.498 724.725C910.498 719.081 906.858 715.093 898.985 712.506L888.76 709.092C875.601 704.859 868.321 697.212 868.321 684.993C868.208 670.536 879.241 661.845 894.884 661.845C912.276 661.845 921.785 674.063 922.604 685.699H908.861C906.858 677.826 900.64 674.656 894.639 674.656C887.698 674.656 882.185 678.296 882.054 684.288C882.054 690.392 885.92 693.685 893.341 696.149L903.679 699.451C916.725 703.683 924.363 711.556 924.363 724.236C924.363 738.345 913.075 748.09 896.643 748.09C877.953 748.09 866.788 735.871 866.214 722.712H879.956V722.75L879.947 722.74Z" fill="white"/>
<path d="M954.347 676.444H930.136V663.294H992.423V676.444H968.09V746.727H954.347V676.444Z" fill="white"/>
<path d="M1018.5 663.294H1004.76V746.727H1018.5V663.294Z" fill="white"/>
<path d="M1077.16 661.88C1097.26 661.88 1113.34 674.926 1117.35 691.265H1102.53C1099.01 681.755 1088.9 675.171 1077.16 675.171C1059.76 675.171 1047.54 688.208 1047.54 705.026C1047.54 721.844 1059.76 734.862 1077.16 734.862C1088.9 734.862 1099.01 728.287 1102.53 718.768H1117.35C1113.34 735.107 1097.25 748.153 1077.16 748.153C1052.37 748.153 1033.68 729.35 1033.68 705.026C1033.68 680.702 1052.37 661.899 1077.16 661.899V661.88Z" fill="white"/>
<path d="M1175.42 712.639L1162.02 681.73L1148.61 712.639H1175.42ZM1156.15 663.294H1168.14L1204.58 746.727H1190.25L1180.74 724.876H1143.37L1133.97 746.727H1119.75L1156.19 663.294H1156.17H1156.15Z" fill="white"/>
<path d="M89.4808 305.2V19.3285C89.4808 13.666 84.8812 9.06641 79.2187 9.06641H10.2621C4.59961 9.07581 0 13.666 0 19.3285V305.2C0 372.069 54.2077 426.258 121.057 426.258H277.98C283.643 426.258 288.242 421.658 288.242 415.996V347.03C288.242 341.367 283.643 336.767 277.98 336.767H121.057C103.609 336.767 89.4808 322.639 89.4808 305.191V305.2Z" fill="white"/>
<path d="M1192.83 338.488H1016.03V260.831H1164.04V260.888C1164.82 260.888 1165.6 260.85 1166.38 260.831H1191.48C1212.03 260.831 1230 276.389 1231.37 296.998C1232.88 319.61 1215.01 338.488 1192.85 338.488H1192.83ZM1162.77 97.8131C1182.32 97.8131 1199.44 112.515 1200.94 132.099C1202.58 153.545 1186.03 171.548 1165.21 172.197H1016.03V97.7943H1162.76V97.8131H1162.77ZM1271.37 199.719C1283.87 178.838 1290.52 154.053 1289.01 127.649C1285.18 60.6494 1228.19 9.16951 1161.45 9.16951L1016.05 9.05664H956.41C939.921 9.05664 926.573 22.498 926.573 39.0717V396.995C926.573 413.568 939.939 427.01 956.41 427.01H1013.36V427.123H1190.45C1260.58 427.123 1319.21 370.911 1319.61 300.403C1319.84 259.618 1300.9 223.225 1271.37 199.71V199.729V199.719Z" fill="white"/>
<path d="M594.676 102.555L656.126 256.478C637.267 261.397 617.805 263.974 597.798 263.974C576.136 263.974 554.615 260.814 533.921 254.841L594.647 102.537L594.666 102.555H594.676ZM460.572 419.167L497.162 337.22C529.5 347.915 563.551 353.483 597.798 353.483C630.062 353.483 662.24 348.526 692.942 338.97L728.751 419.167C730.886 423.954 735.636 427.021 740.857 427.021H814.573C821.947 427.021 826.867 419.43 823.857 412.705L657.913 41.0297C646.776 16.1127 621.953 0 594.647 0C567.341 0 542.518 16.1127 531.382 41.0297L365.448 412.695C362.438 419.43 367.376 427.011 374.731 427.011H448.447C453.668 427.011 458.418 423.945 460.553 419.157H460.572V419.167Z" fill="white"/>
<path d="M1422.72 338.488H1457.51C1472.13 338.488 1484 350.359 1484 364.976V399.769C1484 414.387 1472.13 426.257 1457.51 426.257H1422.72C1408.1 426.257 1396.23 414.387 1396.23 399.769V364.976C1396.23 350.359 1408.1 338.488 1422.72 338.488Z" fill="white"/>
</svg>
